<svg xmlns="http://www.w3.org/2000/svg" width="40" height="40" viewBox="0 0 40 40">
<ellipse cx="20" cy="37" rx="13" ry="2.5" fill="#000" fill-opacity="0.2"/>
  <path d="M9,16 Q9,12 13,12 H27 Q31,12 31,16 L32,34 Q32,37 29,37 H11 Q8,37 8,34 Z" fill="#c9ccd1"/>
  <path d="M11,15 H17 V34 H11 Z" fill="#e4e6ea" fill-opacity="0.7"/>
  <path d="M31,18 L38,13 L37,16 L32,22 Z" fill="#b3b7bd"/>
  <path d="M13,12 Q13,5 20,5 Q27,5 27,12" fill="none" stroke="#3d405b" stroke-width="3" stroke-linecap="round"/>
  <rect x="17" y="9" width="6" height="3" rx="1" fill="#3d405b"/>
  <rect x="8" y="33" width="24" height="4" rx="2" fill="#3d405b"/>
</svg>
