<svg xmlns="http://www.w3.org/2000/svg" width="96" height="64" viewBox="0 0 96 64">
<rect x="0" y="0" width="96" height="64" rx="3" fill="#6b4e39"/>
  <rect x="6" y="6" width="40" height="24" fill="#a9c7cf"/>
  <rect x="50" y="6" width="40" height="24" fill="#a9c7cf"/>
  <rect x="6" y="34" width="40" height="24" fill="#a9c7cf"/>
  <rect x="50" y="34" width="40" height="24" fill="#a9c7cf"/>
  <path d="M10,26 L22,8 H30 L18,26 Z M56,56 L68,38 H72 L60,56 Z" fill="#ffffff" fill-opacity="0.25"/>
  <ellipse cx="18" cy="48" rx="12" ry="7" fill="#8a7a5a" fill-opacity="0.35"/>
  <ellipse cx="78" cy="14" rx="10" ry="6" fill="#8a7a5a" fill-opacity="0.3"/>
  <ellipse cx="36" cy="10" rx="8" ry="4" fill="#8a7a5a" fill-opacity="0.25"/>
  <ellipse cx="80" cy="52" rx="9" ry="5" fill="#8a7a5a" fill-opacity="0.3"/>
  <path d="M62,10 L68,18 L64,22 L72,28" fill="none" stroke="#ffffff" stroke-opacity="0.8" stroke-width="1"/>
  <rect x="58" y="16" width="18" height="5" fill="#e8d9a8" fill-opacity="0.9" transform="rotate(35 67 18.5)"/>
  <rect x="58" y="16" width="18" height="5" fill="#e8d9a8" fill-opacity="0.9" transform="rotate(-35 67 18.5)"/>
</svg>
