<svg xmlns="http://www.w3.org/2000/svg" width="60" height="32" viewBox="0 0 60 32">
<path d="M8,16 C4,8 16,3 26,6 C34,1 50,3 53,10 C59,14 56,24 46,25 C40,31 26,30 20,26 C10,28 2,23 8,16 Z" fill="#4a3220" fill-opacity="0.4"/>
  <path d="M8,16 C4,8 16,3 26,6 C34,1 50,3 53,10 C59,14 56,24 46,25 C40,31 26,30 20,26 C10,28 2,23 8,16 Z" fill="none" stroke="#3a2416" stroke-opacity="0.35" stroke-width="1.2"/>
  <ellipse cx="30" cy="15" rx="12" ry="5" fill="#3a2416" fill-opacity="0.2"/>
  <circle cx="56" cy="27" r="1.8" fill="#4a3220" fill-opacity="0.4"/>
  <circle cx="4" cy="26" r="1.3" fill="#4a3220" fill-opacity="0.4"/>
</svg>
