<svg xmlns="http://www.w3.org/2000/svg" width="36" height="52" viewBox="0 0 36 52">
<ellipse cx="18" cy="50" rx="11" ry="2" fill="#000" fill-opacity="0.2"/>
  <path d="M18,33 C18,24 14,20 8,22" fill="none" stroke="#6b7d4a" stroke-width="2" stroke-linecap="round"/>
  <path d="M18,33 C19,22 24,18 30,24" fill="none" stroke="#6b7d4a" stroke-width="2" stroke-linecap="round"/>
  <path d="M18,33 C17,24 18,16 22,12" fill="none" stroke="#6b7d4a" stroke-width="2" stroke-linecap="round"/>
  <ellipse cx="7" cy="25" rx="5" ry="2.5" fill="#a39058" transform="rotate(50 7 25)"/>
  <ellipse cx="30" cy="27" rx="5" ry="2.5" fill="#8a9a5b" transform="rotate(-60 30 27)"/>
  <ellipse cx="23" cy="13" rx="4.5" ry="2.2" fill="#8a9a5b" transform="rotate(-20 23 13)"/>
  <ellipse cx="13" cy="21" rx="4" ry="2" fill="#b39a5e" transform="rotate(20 13 21)"/>
  <path d="M8,34 H28 L25,49 H11 Z" fill="#c0704d"/>
  <rect x="6" y="31" width="24" height="5" rx="1.5" fill="#a85d3e"/>
  <ellipse cx="29" cy="49" rx="3.5" ry="1.5" fill="#8f7a4a" transform="rotate(15 29 49)"/>
</svg>
