<svg xmlns="http://www.w3.org/2000/svg" width="40" height="56" viewBox="0 0 40 56">
<ellipse cx="20" cy="53.5" rx="12" ry="2.5" fill="#000" fill-opacity="0.2"/>
  <rect x="13" y="38" width="6" height="15" rx="3" fill="#3d405b"/>
  <rect x="21" y="38" width="6" height="15" rx="3" fill="#3d405b"/>
  <rect x="8" y="24" width="24" height="20" rx="8" fill="#e07a5f"/>
  <circle cx="8.5" cy="37" r="3" fill="#f1c27d"/>
  <circle cx="31.5" cy="37" r="3" fill="#f1c27d"/>
  <circle cx="20" cy="14" r="11" fill="#f1c27d"/>
  <path d="M9,14 A11,11 0 0 1 31,14 L31,16 C28,11 24,10 20,11 C16,10 12,11 9,16 Z" fill="#4a3728"/>
  <circle cx="16" cy="16" r="1.5" fill="#2b2b2b"/>
  <circle cx="24" cy="16" r="1.5" fill="#2b2b2b"/>
  <circle cx="13.5" cy="19" r="2" fill="#f28482" fill-opacity="0.45"/>
  <circle cx="26.5" cy="19" r="2" fill="#f28482" fill-opacity="0.45"/>
  <path d="M17.5,19.5 Q20,21.5 22.5,19.5" fill="none" stroke="#2b2b2b" stroke-width="1.2" stroke-linecap="round"/>
</svg>
